<svg xmlns="http://www.w3.org/2000/svg" width="960" height="600" viewBox="0 0 960 600" data-source="SQLite fact_market_context, Phase 1C-B">
<title>Kontextalter seit Quellzeitpunkt</title>
<desc>Decision Time minus Coin-Metrics-Quellzeitpunkt; Quartile und Median ueber Assets. Quelle: SQLite fact_market_context, Phase 1C-B</desc>
<rect width="960" height="600" fill="#FAFBFC"/>
<text x="70" y="42" font-family="Arial" font-size="22" fill="#20242A">Kontextalter seit Quellzeitpunkt</text>
<text x="70" y="66" font-family="Arial" font-size="13" fill="#59616B">Decision Time minus Coin-Metrics-Quellzeitpunkt; Quartile und Median ueber Assets</text>
<line x1="90" y1="500" x2="900" y2="500" stroke="#303840" stroke-width="1.2"/>
<line x1="90" y1="95" x2="90" y2="500" stroke="#303840" stroke-width="1.2"/>
<line x1="90" y1="500.00" x2="900" y2="500.00" stroke="#D9DEE4" stroke-width="1"/>
<text x="82" y="504.00" text-anchor="end" font-family="Arial" font-size="10" fill="#59616B">0</text>
<line x1="90" y1="403.75" x2="900" y2="403.75" stroke="#D9DEE4" stroke-width="1"/>
<text x="82" y="407.75" text-anchor="end" font-family="Arial" font-size="10" fill="#59616B">10.3</text>
<line x1="90" y1="307.50" x2="900" y2="307.50" stroke="#D9DEE4" stroke-width="1"/>
<text x="82" y="311.50" text-anchor="end" font-family="Arial" font-size="10" fill="#59616B">20.6</text>
<line x1="90" y1="211.25" x2="900" y2="211.25" stroke="#D9DEE4" stroke-width="1"/>
<text x="82" y="215.25" text-anchor="end" font-family="Arial" font-size="10" fill="#59616B">30.9</text>
<line x1="90" y1="115.00" x2="900" y2="115.00" stroke="#D9DEE4" stroke-width="1"/>
<text x="82" y="119.00" text-anchor="end" font-family="Arial" font-size="10" fill="#59616B">41.2</text>
<text x="297.50" y="520" text-anchor="middle" font-family="Arial" font-size="11" fill="#303840">1h</text>
<rect x="243.50" y="222.33" width="34.00" height="277.67" fill="#2463A7" stroke="#303840" stroke-width="0.5"/>
<rect x="279.50" y="168.67" width="34.00" height="331.33" fill="#D49A18" stroke="#303840" stroke-width="0.5"/>
<rect x="315.50" y="115.00" width="34.00" height="385.00" fill="#D56A2B" stroke="#303840" stroke-width="0.5"/>
<text x="692.50" y="520" text-anchor="middle" font-family="Arial" font-size="11" fill="#303840">4h</text>
<rect x="638.50" y="238.67" width="34.00" height="261.33" fill="#2463A7" stroke="#303840" stroke-width="0.5"/>
<rect x="674.50" y="182.67" width="34.00" height="317.33" fill="#D49A18" stroke="#303840" stroke-width="0.5"/>
<rect x="710.50" y="126.67" width="34.00" height="373.33" fill="#D56A2B" stroke="#303840" stroke-width="0.5"/>
<rect x="630" y="75" width="12" height="10" fill="#2463A7" stroke="#303840" stroke-width="0.5"/>
<text x="647" y="85" font-family="Arial" font-size="10" fill="#303840">q25</text>
<rect x="735" y="75" width="12" height="10" fill="#D49A18" stroke="#303840" stroke-width="0.5"/>
<text x="752" y="85" font-family="Arial" font-size="10" fill="#303840">median</text>
<rect x="840" y="75" width="12" height="10" fill="#D56A2B" stroke="#303840" stroke-width="0.5"/>
<text x="857" y="85" font-family="Arial" font-size="10" fill="#303840">q75</text>
<text x="495" y="552" text-anchor="middle" font-family="Arial" font-size="13" fill="#303840">Kalenderjahr / Kategorie</text>
<text x="22" y="300" text-anchor="middle" transform="rotate(-90 22 300)" font-family="Arial" font-size="13" fill="#303840">Stunden</text>
<text x="70" y="582" font-family="Arial" font-size="11" fill="#59616B">Quelle: SQLite fact_market_context, Phase 1C-B | Ausgeschlossen: 7 Monate je Asset; 88,39 % akzeptierte Abdeckung.</text>
</svg>
